<?xml version="1.0" encoding="utf-8"?>
<svg viewBox="87.219 76.35 333.159 321.57" xmlns="http://www.w3.org/2000/svg" xmlns:xlink="http://www.w3.org/1999/xlink">
  <g transform="matrix(1, 0, 0, 1, -296.540497, -284.404236)">
    <path d="M547.03619,574.7649c0-23.6303-13.912-42.8553-31.0137-42.8553-17.10149,0-31.0137,19.225-31.0137,42.8553s13.91221,42.8554,31.0137,42.8554C533.12419,617.6203,547.03619,598.3953,547.03619,574.7649Zm-47.7423.5644c0-13.3913,7.5737-24.2471,16.9166-24.2471,9.3427,0,16.91651,10.8558,16.91651,24.2471s-7.57381,24.2472-16.91651,24.2472C506.86759,599.5765,499.29389,588.7207,499.29389,575.3293Zm121.9882-43.4197c-17.1016,0-31.0137,19.225-31.0137,42.8553s13.9121,42.8554,31.0137,42.8554,31.0137-19.225,31.0137-42.8554S638.38368,531.9096,621.28208,531.9096Zm.1871,67.6669c-9.3427,0-16.9165-10.8558-16.9165-24.2472s7.5738-24.2471,16.9165-24.2471,16.9167,10.8558,16.9167,24.2471S630.812,599.5765,621.46918,599.5765Zm-1.306,35.0441c.6102,1.0551.1255,2.7027-.53318,3.8922-10.73792,19.4122-35.56,32.2428-59.11331,30.5489a58.12039,58.12039,0,0,1-7.1829-.9802h-.0023c-19.9078-3.9935-34.13049-17.5862-42.5558-28.2845-.6123-.7776-1.9912-2.7733-1.5529-4.4891a2.66806,2.66806,0,0,1,1.76-1.826,4.049,4.049,0,0,1,1.1058-.13,15.97,15.97,0,0,1,1.6475.1189c33.0381,3.4076,62.792,3.7732,90.9664,1.1014,1.641-.1542,3.2909-.3811,4.9429-.6102,2.3061-.3172,4.4847-.6167,6.6587-.729C617.68508,633.158,619.50448,633.4841,620.16318,634.6206Z" transform="translate(-16.54021 -33.8383)" style="fill: #fff"/>
    <path d="M 685.381 616.956 C 685.416 616.833 685.435 616.709 685.481 616.587 C 685.578 616.329 695.219 590.144 685.023 570.589 C 679.981 560.919 670.748 554.309 657.582 550.945 L 657.567 550.941 C 654.56 550.167 653.214 546.66 654.93 544.073 C 655.267 541.024 655.554 539.031 655.535 535.964 L 655.586 534.313 C 655.696 529.533 655.38 524.145 653.454 519.138 C 650.824 512.288 645.364 507.85 641.249 505.332 C 638.491 503.656 635.542 502.316 632.465 501.341 C 631.668 501.131 625.996 500.085 623.573 499.638 C 620.679 499.105 618.835 498.759 617.829 497.432 C 595.315 516.96 569.034 531.662 540.612 540.628 C 547.344 549.253 551.547 561.363 551.547 574.765 C 551.668 585.38 548.845 595.821 543.391 604.929 C 556.669 600.908 573.134 594.403 586.491 584.361 C 586.001 581.186 585.756 577.978 585.757 574.765 C 585.757 548.648 601.694 527.398 621.282 527.398 C 640.871 527.398 656.807 548.648 656.807 574.765 C 656.807 600.882 640.871 622.132 621.282 622.132 C 605.476 622.132 592.054 608.293 587.457 589.229 C 571.869 600.406 552.819 607.133 538.956 610.897 C 532.763 617.897 524.759 622.132 516.022 622.132 C 510.77 622.097 505.631 620.593 501.189 617.788 C 476.489 620.193 453.402 620.528 445.875 620.571 C 441.226 622.656 425.027 632.52 422.911 634.16 C 413.323 642.837 408.37 655.514 409.534 668.392 C 410.969 681.49 418.647 693.085 430.144 699.52 C 441.37 705.701 454.646 706.83 468.324 705.785 C 515.09 698.23 650.634 671.963 685.381 616.956 Z M 623.577 640.698 C 612.564 660.603 588.925 673.729 564.911 673.731 C 563.336 673.731 561.763 673.674 560.191 673.56 C 557.589 673.37 555.002 673.017 552.444 672.505 L 552.446 672.505 C 535.622 669.13 519.987 658.784 507.234 642.59 C 505.029 639.79 504.183 636.808 504.853 634.189 C 505.493 631.774 507.342 629.864 509.736 629.147 C 511.199 628.801 512.716 628.746 514.201 628.984 C 546.939 632.358 576.4 632.72 604.277 630.083 C 605.854 629.933 607.44 629.713 609.029 629.495 C 611.328 629.178 613.703 628.85 616.071 628.726 C 619.639 628.541 622.648 629.9 624.071 632.365 C 625.405 634.678 625.227 637.713 623.577 640.698 Z M 724.381 664.181 C 723.279 682.234 703.986 697.291 685.495 702.835 C 667.452 708.245 647.611 707.344 628.419 706.481 C 624.674 706.311 620.952 706.142 617.269 706.02 C 594.717 705.242 572.227 703.2 549.904 699.906 C 547.563 699.562 545.087 699.036 542.463 698.481 C 540.123 697.984 537.754 697.486 535.373 697.086 C 591.945 683.356 661.246 659.585 687.411 622.048 C 687.541 622.133 687.674 622.21 687.812 622.281 C 713.059 633.916 725.363 648.013 724.381 664.181 Z M 450.479 614.847 C 446.175 597.102 447.57 582.477 454.621 571.375 C 464.169 556.344 481.213 552.721 481.372 552.688 C 484.098 552.148 485.694 549.297 484.727 546.692 C 479.286 532.031 479.286 518.861 484.729 507.546 C 493.908 488.457 515.853 480.203 518.313 479.329 C 520.365 479.655 522.441 479.805 524.518 479.779 C 533.979 479.779 548.578 477.455 560.149 471.109 C 561.673 470.277 561.725 468.107 560.242 467.204 C 559.552 466.783 558.69 466.763 557.981 467.153 C 545.056 474.24 529.017 475.679 521.641 475.25 C 521.666 474.926 521.656 474.6 521.611 474.279 C 520.666 468.065 519.593 461.023 520.653 455.15 C 521.342 451.34 523.567 448.739 526.382 445.446 C 527.829 443.806 529.192 442.096 530.468 440.32 C 536.981 430.984 534.783 421.736 532.842 413.576 C 532.54 412.304 532.234 411.016 531.952 409.711 C 531.501 407.603 531.703 405.746 532.468 404.978 C 537.827 399.593 561.129 410.53 575.473 420.741 C 589.01 430.423 599.797 443.458 606.775 458.567 C 611.283 468.293 614.141 480.555 616.484 492.58 C 607.888 500.471 579.565 524.207 537.459 536.894 L 537.517 537.086 C 531.544 531.014 524.095 527.398 516.022 527.398 C 496.434 527.398 480.498 548.648 480.498 574.765 C 480.498 590.915 486.595 605.196 495.878 613.75 C 477.135 615.39 459.912 615.873 450.594 616.012 C 450.607 615.627 450.57 615.241 450.484 614.865 L 450.484 614.863 L 450.479 614.847 Z" transform="translate(-16.54021 -33.8383)" style="fill: #845932"/>
    <path d="M 516.21 551.082 C 525.553 551.082 533.127 561.938 533.127 575.329 C 533.127 588.721 525.553 599.577 516.21 599.577 C 506.868 599.577 499.294 588.721 499.294 575.329 C 499.294 561.938 506.868 551.082 516.21 551.082 Z M 733.385 664.729 C 731.971 687.941 708.911 705.234 688.085 711.479 C 675.763 715.173 662.997 716.162 650.241 716.162 C 642.798 716.162 635.359 715.825 628.011 715.492 C 624.302 715.325 620.617 715.16 616.971 715.038 C 594.081 714.248 571.254 712.176 548.596 708.831 C 545.97 708.448 543.237 707.866 540.591 707.305 C 534.699 706.056 528.606 704.761 523.461 705.536 C 517.357 706.457 510.892 707.774 504.049 709.166 C 478.357 714.404 449.233 720.329 425.792 707.424 C 395.912 690.974 391.409 649.86 417.019 627.332 C 418.417 626.085 426.783 620.99 430.616 618.717 C 435.329 615.922 438.55 614.127 440.825 613.001 C 437.061 594.466 439.16 578.811 447.079 566.421 C 455.37 553.454 467.852 547.602 474.707 545.238 C 470.006 529.956 470.647 515.958 476.632 503.566 C 485.678 484.825 504.298 475.343 512.157 472.043 C 511.335 466.226 510.681 459.607 511.776 453.547 C 512.897 447.333 516.419 443.214 519.527 439.582 C 520.793 438.1 521.992 436.699 523.067 435.157 C 527.269 429.137 525.855 423.191 524.064 415.663 C 523.747 414.326 523.426 412.975 523.133 411.604 C 522.005 406.355 523.08 401.619 526.076 398.61 C 539.73 384.9 576.554 410.434 580.706 413.391 C 595.519 423.982 607.324 438.243 614.96 454.774 C 619.848 465.316 622.87 478.188 625.326 490.788 C 632.287 492.072 634.417 492.495 635.207 492.746 C 638.973 493.939 642.582 495.581 645.956 497.636 C 653.569 502.292 659.076 508.607 661.877 515.903 C 664.38 522.414 664.558 529.363 664.433 534.692 L 664.428 535.029 C 664.373 538.703 664.263 541.405 664.082 543.43 C 677.624 547.782 687.356 555.516 693.048 566.465 C 702.621 584.88 697.821 606.926 695.213 615.816 C 721.726 628.896 734.564 645.339 733.385 664.729 Z M 450.479 614.847 L 450.484 614.863 L 450.484 614.865 C 450.57 615.241 450.607 615.627 450.594 616.012 C 459.912 615.873 477.135 615.39 495.878 613.75 C 486.595 605.196 480.498 590.915 480.498 574.765 C 480.498 548.648 496.434 527.398 516.022 527.398 C 524.095 527.398 531.544 531.014 537.517 537.086 L 537.459 536.894 C 579.565 524.207 607.888 500.471 616.484 492.58 C 614.141 480.556 611.283 468.293 606.775 458.567 C 599.797 443.458 589.01 430.423 575.473 420.741 C 561.129 410.53 537.827 399.593 532.468 404.978 C 531.703 405.746 531.501 407.603 531.952 409.711 C 532.234 411.017 532.54 412.304 532.842 413.576 C 534.783 421.736 536.981 430.984 530.468 440.32 C 529.192 442.096 527.829 443.806 526.382 445.446 C 523.567 448.739 521.342 451.34 520.653 455.151 C 519.593 461.023 520.666 468.065 521.611 474.279 C 521.656 474.6 521.666 474.926 521.641 475.25 C 529.017 475.679 545.056 474.24 557.981 467.153 C 559.503 466.316 561.359 467.44 561.323 469.176 C 561.306 469.984 560.858 470.722 560.149 471.109 C 548.578 477.455 533.979 479.779 524.518 479.779 C 522.441 479.805 520.365 479.655 518.313 479.329 C 515.853 480.203 493.908 488.457 484.729 507.546 C 479.286 518.861 479.286 532.031 484.727 546.692 C 485.693 549.297 484.098 552.148 481.372 552.688 C 481.213 552.721 464.169 556.344 454.621 571.375 C 447.57 582.477 446.175 597.102 450.479 614.847 Z M 516.022 531.91 C 498.921 531.91 485.009 551.135 485.009 574.765 C 485.009 598.395 498.921 617.62 516.022 617.62 C 533.124 617.62 547.036 598.395 547.036 574.765 C 547.036 551.134 533.124 531.91 516.022 531.91 Z M 685.381 616.956 C 685.416 616.833 685.435 616.709 685.481 616.587 C 685.578 616.329 695.219 590.144 685.023 570.589 C 679.981 560.919 670.748 554.309 657.582 550.945 L 657.567 550.941 C 654.56 550.167 653.214 546.66 654.93 544.073 C 655.267 541.024 655.425 537.959 655.406 534.892 L 655.415 534.484 C 655.525 529.705 655.249 524.21 653.323 519.203 C 650.693 512.353 645.321 508.021 641.206 505.503 C 638.448 503.827 635.461 502.722 632.384 501.747 C 631.587 501.537 625.996 500.085 623.573 499.638 C 620.679 499.105 618.835 498.759 617.829 497.432 C 595.315 516.96 569.034 531.662 540.612 540.628 C 547.344 549.253 551.547 561.363 551.547 574.765 C 551.668 585.38 548.845 595.821 543.391 604.929 C 556.669 600.908 573.134 594.403 586.491 584.361 C 586.001 581.186 585.756 577.978 585.757 574.765 C 585.757 548.648 601.694 527.398 621.282 527.398 C 640.871 527.398 656.807 548.648 656.807 574.765 C 656.807 600.882 640.871 622.132 621.282 622.132 C 605.476 622.132 592.054 608.293 587.457 589.229 C 571.869 600.406 552.819 607.133 538.956 610.897 C 532.763 617.897 524.759 622.132 516.022 622.132 C 510.77 622.097 505.631 620.593 501.189 617.788 C 476.489 620.193 453.402 620.528 445.875 620.571 C 441.226 622.656 425.027 632.52 422.911 634.16 C 413.323 642.837 408.37 655.514 409.534 668.392 C 410.969 681.49 418.647 693.085 430.144 699.52 C 441.37 705.701 454.646 706.83 468.324 705.785 C 515.09 698.23 650.634 671.963 685.381 616.956 Z M 621.282 617.62 C 638.384 617.62 652.296 598.395 652.296 574.765 C 652.296 551.134 638.384 531.91 621.282 531.91 C 604.18 531.91 590.268 551.135 590.268 574.765 C 590.268 598.395 604.18 617.62 621.282 617.62 Z M 687.812 622.281 C 687.674 622.21 687.541 622.133 687.411 622.048 C 661.246 659.585 591.945 683.356 535.373 697.086 C 537.754 697.486 540.123 697.984 542.463 698.481 C 545.087 699.036 547.563 699.562 549.904 699.906 C 572.227 703.2 594.717 705.242 617.269 706.021 C 620.952 706.142 624.674 706.311 628.419 706.481 C 647.611 707.344 667.452 708.245 685.495 702.836 C 703.986 697.291 723.279 682.234 724.381 664.181 C 725.363 648.013 713.059 633.916 687.812 622.281 Z M 621.469 599.576 C 630.812 599.576 638.386 588.721 638.386 575.329 C 638.386 561.938 630.812 551.082 621.469 551.082 C 612.126 551.082 604.553 561.938 604.553 575.329 C 604.553 588.721 612.126 599.577 621.469 599.577 L 621.469 599.576 Z M 624.071 632.365 C 625.405 634.678 625.227 637.713 623.577 640.698 C 612.564 660.603 588.925 673.729 564.911 673.731 C 563.336 673.731 561.763 673.674 560.191 673.56 C 557.589 673.37 555.002 673.017 552.444 672.504 L 552.446 672.504 C 535.622 669.13 519.987 658.784 507.234 642.59 C 505.029 639.79 504.183 636.808 504.853 634.189 C 505.493 631.774 507.342 629.864 509.736 629.147 C 511.199 628.801 512.716 628.746 514.201 628.984 C 546.939 632.358 576.4 632.72 604.277 630.083 C 605.854 629.933 607.44 629.713 609.029 629.495 C 611.328 629.178 613.703 628.85 616.071 628.726 C 619.639 628.541 622.648 629.9 624.071 632.365 Z M 620.163 634.621 C 619.504 633.484 617.685 633.158 616.304 633.233 C 614.13 633.345 611.951 633.645 609.645 633.962 C 607.993 634.191 606.343 634.418 604.702 634.572 C 576.528 637.244 546.774 636.878 513.736 633.471 C 513.189 633.403 512.639 633.363 512.089 633.352 C 511.716 633.344 511.344 633.388 510.983 633.482 C 510.126 633.755 509.464 634.441 509.223 635.308 C 508.784 637.024 510.163 639.019 510.776 639.797 C 519.201 650.495 533.424 664.088 553.331 668.081 L 553.334 668.081 C 555.705 668.557 558.104 668.885 560.517 669.062 C 584.07 670.756 608.892 657.925 619.63 638.513 C 620.289 637.323 620.773 635.676 620.163 634.621 Z" transform="translate(-16.54021 -33.8383)" style="fill: #231f20"/>
  </g>
</svg>